<svg xmlns="http://www.w3.org/2000/svg" width="641" height="241" fill="none" viewBox="0 0 641 241"><path fill="#2c2f30" d="M339.911 145.067c-2.754 5.089-8.866 16.198-11.647 17.417-2.78 1.22-6.36 1.941-10.715 2.151h-47.674l7.266-25.234 7.62-23.594c2.885.144 7.882.328 13.273.118 11.476-.433 19.201-2.308 22.965-5.587 2.623-2.282 2.675-4.525 1.285-7.777-1.849-4.355-6.991-6.847-13.037-10.69-5.416-3.449-10.938-7.632-13.849-12.275l-1.679-3.699c-.485-1.731-.551-3.502-.066-5.325.761-2.885 5.574-8.866 8.302-12.079l1.981-2.02h41.929c4.223.21 7.332.932 9.325 2.151 1.994 1.22.931 12.329.394 17.417h.918l6.61-21.154H293.22l-.262.8c1.351 0 2.217.34 2.61 1.036.394.695.236 2.098-.446 4.21l-2.059 6.36c-.092.158-.184.302-.262.46a14.5 14.5 0 0 0-1.299 3.213c-2.374 8.984 6.951 14.925 15.975 20.656 5.928 3.764 11.515 7.332 13.272 11.437 1.141 2.689.027 4.787-1.678 6.479-4.525 4.472-20.447 3.934-33.208 2.846v-.053c-3.345-.222-5.627-.406-5.627-.406l-1.456-.38-15.699 48.618q-1.023 3.187-2.282 4.21c-.839.695-1.928 1.036-3.278 1.036l-.263.8h76.515l7.056-21.155h-.918zM219.75 0 48.031 240.154h3.463L223.317 0zM90.078 136.28c4.406-8.433 6.623-17.417 6.623-26.965s-2.243-18.925-6.715-27.516c-4.473-8.59-11.122-15.528-19.962-20.84q-13.24-7.948-31.634-7.948H.5v.8c1.35 0 2.335.342 2.938 1.037.616.695.918 2.098.918 4.21v99.414c0 2.124-.302 3.528-.918 4.21-.617.695-1.6 1.036-2.938 1.036v.8h38.44c12.264 0 22.743-2.597 31.451-7.791 8.709-5.193 15.267-12.013 19.686-20.433zm-50.954 26.638h-27.41V54.612H38.01c10.912 0 20.237 2.57 27.962 7.711 7.724 5.142 13.521 11.843 17.377 20.12 3.856 8.275 5.797 17.128 5.797 26.558s-1.901 18.112-5.705 26.322c-3.803 8.223-9.508 14.873-17.102 19.962q-11.41 7.632-27.228 7.633zM466.409 57.903c1.587-1.482 3.489-2.23 5.692-2.23l.249-.8h-15.069l-.262.8c2.203 0 3.62.748 4.249 2.23q.924 2.223-.866 7.79l-28.709 88.909-44.5-99.728h-11.765l-.262.8c1.115 0 1.928.288 2.479.878.551.577 1.364 2.046 2.453 4.368l.209.472-30.348 93.997q-1.79 5.568-4.171 7.791c-1.587 1.482-3.476 2.229-5.679 2.229l-.262.8h15.082l.263-.8c-2.204 0-3.62-.734-4.25-2.229q-.944-2.223.866-7.791l29.588-91.61 46.559 102.43h1.836L462.252 65.68q1.81-5.567 4.17-7.79zM570.636 54.874l-.263.8c1.351 0 2.217.34 2.61 1.036q.591 1.042-.432 4.21l-15.555 48.159c.354-.026.734-.052 1.115-.066v.145c13.705-1.194 31.739-2.086 33.955 2.649.8 1.692.774 3.803-1.81 6.479-3.974 4.105-11.489 7.672-19.45 11.437-8.577 4.065-17.364 8.223-22.65 13.495-1.679 1.6-3.187 3.449-3.908 5.391l-.197.603c-.144.38-.275.774-.393 1.167 0 .053 0 .105-.04.158l-3.121 9.639q-1.043 3.187-2.282 4.21c-.84.695-1.928 1.036-3.279 1.036l-.262.8h76.514l7.056-21.155h-.918c-2.741 5.089-8.853 16.198-11.646 17.418-2.781 1.219-6.348 1.941-10.715 2.15h-47.596c-.538-1.914-2.78-10.269-1.797-13.849 2.282-8.25 14.427-14.585 26.179-20.145 8.131-3.843 15.803-7.489 20.013-11.844 3.148-3.265 4.04-5.495 2.65-7.777-1.981-3.279-8.696-5.154-19.949-5.587a146 146 0 0 0-8.918-.039l15.791-48.92h41.943c4.223.21 7.331.93 9.324 2.15 1.994 1.22.932 12.329.394 17.418h.918l6.61-21.155h-69.891zM255.409 125.815c-2.492-4.46-5.954-8.434-10.4-11.935s-10.335-7.581-17.653-12.25c-6.637-4.131-11.476-7.37-14.519-9.705s-5.286-4.8-6.715-7.397-1.849-5.588-1.233-8.984c.839-4.132 3.318-7.79 7.41-10.978s9.22-5.666 15.384-7.476c6.165-1.796 12.552-2.701 19.175-2.701 9.928 0 17.404 1.81 22.44 5.403 5.023 3.607 7.384 9.561 6.82 16.237l.866-.026 6.597-21.182s-2.597.027-2.623.08c-1.338 2.347-3.24 6.11-4.473 6.99-3.711-3.397-7.856-5.26-12.748-6.794-4.905-1.535-10.597-2.308-17.102-2.308-10.427 0-20.25 2.124-29.457 6.36-9.22 4.25-15.476 10.335-18.781 18.296-1.98 4.984-.708 9.89 3.803 14.716s11.371 10.046 20.605 15.672c6.754 4.132 12.21 7.857 16.354 11.135 4.145 3.292 7.266 6.912 9.352 10.899 2.085 3.974 2.4 8.25.918 12.801-1.548 4.774-4.407 8.905-8.604 12.407a43 43 0 0 1-5.351 3.777c.131-.105.262-.197.393-.302-4.734 2.584-8.866 4.945-16.328 3.056-9.115-2.321-14.912-15.004-21.063-26.755-4.25-8.132-8.276-15.804-13.102-20.014-3.607-3.148-7.293-4.039-9.811-2.662-3.62 1.993-5.128 8.708-5.6 19.948-.341 8.158-4.472 24.25-4.472 24.355l-1.876 6.217s2.925-3.659 2.977-3.712c1.404-1.233 2.886-2.177 4.119-2.964l1.429-.118c3.554 3.738 7.633 5.994 12.486 7.987 5.062 2.072 11.017 3.345 17.889 3.83 11.017.787 21.562-.826 31.647-4.813 10.073-4.001 17.168-10.257 21.287-18.795.577-1.259 1.127-3.016 1.495-4.774q2.065-7.14-1.495-13.535zm-78.416-11.267c1.875-.8 4.197-.773 7.161 1.824 4.551 3.973 8.485 11.489 12.656 19.449 6.348 12.119 12.919 24.657 22.847 27.149 1.167.289 2.361.433 3.554.433.761 0 1.521-.053 2.282-.144-5.312 1.652-10.623 2.492-15.909 2.492-11.279 0-19.62-2.204-24.997-6.597-2.873-2.348-5.863-4.997-8.014-8.171-1.469-2.663-2.479-5.902-3.121-9.365v-.354h-.053c-2.02-11.541.118-25.22 3.594-26.702zM532.693 125.815c-2.479-4.459-5.955-8.433-10.401-11.935s-10.335-7.581-17.653-12.25c-6.636-4.131-11.476-7.37-14.519-9.705-3.055-2.334-5.285-4.8-6.715-7.397s-1.849-5.587-1.246-8.984c.853-4.131 3.319-7.79 7.411-10.977s9.22-5.666 15.384-7.476l.551-.158c2.583-.301 4.983-.42 6.387-.118 8.603 1.85 10.977 11.673 12.708 21.169 1.207 6.57 2.925 14.505 6.27 17.915 2.505 2.544 4.813 2.689 7.987 1.574 4.564-1.613 10.702-9.719 14.217-18.48q.59-1.494 1.141-2.99h.039l.21-.682a173 173 0 0 0 3.541-11.082l-.079-.04 2.925-9.39s-2.597.026-2.636.078c-1.338 2.348-3.239 6.112-4.459 6.99-3.712-3.396-7.856-5.258-12.761-6.793-4.892-1.534-10.598-2.308-17.09-2.308-6.885 0-13.508.931-19.869 2.78-2.846.63-6.02 1.705-9.535 3.253 0 0 .498-.105 1.325-.276-.459.197-.919.407-1.378.617-9.22 4.25-15.476 10.335-18.781 18.296-1.98 4.984-.721 9.889 3.791 14.715s11.384 10.046 20.604 15.673c6.754 4.131 12.21 7.856 16.355 11.135 4.157 3.292 7.265 6.912 9.364 10.899 2.085 3.973 2.387 8.249.918 12.8-1.535 4.774-4.407 8.905-8.604 12.407s-9.062 6.151-14.61 7.948c-5.548 1.81-11.083 2.702-16.604 2.702-11.279 0-19.607-2.204-24.998-6.597-5.377-4.394-11.135-9.824-11.135-17.889h-2.61v-.04l-.918-.039-7.489 25.575 2.637-3.397c1.6-2.492 5.206-7.043 6.57-7.922 3.66 4.04 7.883 6.4 12.945 8.473 5.05 2.072 11.017 3.344 17.889 3.829 11.017.787 21.562-.826 31.635-4.813 10.085-4 17.181-10.256 21.299-18.794.577-1.259 1.128-3.017 1.495-4.774 1.377-4.761.879-9.273-1.508-13.535zm-8.565-71.413c9.929 0 17.404 1.81 22.441 5.404 3.292 2.36 5.429 5.731 6.361 9.653-.617 2.767-1.246 5.73-2.269 8.747-2.873 8.539-7.909 17.43-11.778 18.532-2.269.643-4.105.63-6.164-1.469-3.161-3.213-4.84-11.594-6.02-18.033-1.797-9.81-4.223-19.949-13.587-21.955h-.027a70 70 0 0 1 11.043-.879"/></svg>