<svg xmlns="http://www.w3.org/2000/svg" width="240" height="91" fill="none" viewBox="0 0 240 91"><path fill="#eee7e1" d="M127.509 54.785c-1.031 1.904-3.318 6.061-4.358 6.518q-1.563.686-4.01.804h-17.84l2.719-9.442 2.852-8.83a57 57 0 0 0 4.966.045c4.295-.162 7.185-.864 8.594-2.09.982-.855 1.001-1.694.481-2.911-.692-1.63-2.616-2.562-4.878-4-2.027-1.29-4.093-2.856-5.183-4.594l-.628-1.384a3.7 3.7 0 0 1-.025-1.992c.285-1.08 2.086-3.318 3.107-4.52l.741-.756h15.69q2.37.118 3.49.805c.746.456.348 4.613.147 6.517h.343l2.474-7.916h-26.154l-.098.3q.758-.002.977.387c.147.26.088.785-.167 1.576l-.771 2.38c-.034.059-.068.113-.098.172q-.332.612-.486 1.202c-.888 3.362 2.601 5.585 5.978 7.73 2.218 1.408 4.309 2.743 4.967 4.28.427 1.005.01 1.79-.628 2.424-1.694 1.673-7.652 1.472-12.427 1.065v-.02c-1.251-.083-2.105-.152-2.105-.152l-.545-.142-5.875 18.193q-.383 1.193-.854 1.575-.47.389-1.227.388l-.098.3h28.632l2.641-7.917h-.344zM82.544.5 18.287 90.367h1.295L83.88.5zM34.02 51.497a21.5 21.5 0 0 0 2.479-10.09c0-3.574-.84-7.083-2.513-10.297s-4.162-5.811-7.47-7.799q-4.955-2.974-11.837-2.974H.5v.3q.76-.002 1.1.387.344.39.343 1.576v37.2q.001 1.193-.344 1.576-.346.389-1.099.388v.3h14.385q6.882 0 11.769-2.916c3.258-1.944 5.712-4.496 7.366-7.646zm-19.067 9.967H4.696V20.936h9.84q6.127 0 10.464 2.886 4.337 2.884 6.503 7.528c1.442 3.097 2.169 6.41 2.169 9.938 0 3.53-.712 6.778-2.135 9.85q-2.136 4.616-6.4 7.47-4.27 2.856-10.189 2.856zM174.845 22.168a3.02 3.02 0 0 1 2.13-.834l.093-.3h-5.639l-.098.3q1.236.001 1.59.834.346.832-.324 2.915l-10.743 33.27-16.652-37.319h-4.403l-.098.3c.417 0 .722.108.928.328.206.216.51.766.918 1.635l.078.176-11.356 35.174q-.67 2.084-1.561 2.916a3 3 0 0 1-2.125.834l-.098.3h5.644l.098-.3c-.825 0-1.355-.275-1.59-.834q-.354-.833.324-2.916l11.072-34.28 17.422 38.33h.687l12.147-37.619q.678-2.083 1.561-2.915zM213.846 21.034l-.098.3q.758-.002.977.387.22.39-.162 1.576l-5.821 18.021c.133-.01.275-.02.417-.024v.053c5.129-.446 11.877-.78 12.707.992.299.633.289 1.423-.678 2.424-1.487 1.537-4.299 2.871-7.278 4.28-3.209 1.521-6.498 3.077-8.476 5.05-.628.599-1.192 1.29-1.462 2.017l-.074.226q-.081.215-.147.437c0 .02 0 .039-.015.059l-1.168 3.607q-.39 1.192-.854 1.575-.47.389-1.227.388l-.098.3h28.632l2.641-7.917h-.344c-1.026 1.904-3.313 6.061-4.358 6.518q-1.559.685-4.01.805h-17.81c-.201-.717-1.04-3.843-.672-5.183.854-3.087 5.398-5.458 9.796-7.538 3.042-1.438 5.913-2.803 7.489-4.432 1.178-1.222 1.511-2.057.991-2.91-.741-1.227-3.254-1.93-7.464-2.091a55 55 0 0 0-3.338-.015l5.909-18.306h15.695q2.371.119 3.49.805c.746.456.348 4.613.147 6.517h.344L240 21.04h-26.154zM95.888 47.58q-1.398-2.5-3.892-4.466-2.497-1.964-6.606-4.583-3.725-2.32-5.433-3.632-1.709-1.311-2.513-2.768c-.535-.972-.692-2.091-.46-3.362.313-1.546 1.24-2.915 2.772-4.108s3.45-2.12 5.757-2.797a25.5 25.5 0 0 1 7.175-1.011c3.715 0 6.513.677 8.397 2.022 1.88 1.35 2.763 3.577 2.552 6.076l.324-.01 2.469-7.926s-.972.01-.982.03c-.5.878-1.212 2.286-1.673 2.615-1.389-1.271-2.94-1.968-4.77-2.542-1.836-.574-3.966-.864-6.4-.864q-5.854.001-11.023 2.38c-3.45 1.59-5.791 3.867-7.028 6.846q-1.11 2.798 1.423 5.507c1.688 1.806 4.255 3.76 7.71 5.865 2.528 1.546 4.57 2.94 6.12 4.167 1.551 1.232 2.72 2.586 3.5 4.078.78 1.487.897 3.087.343 4.79-.58 1.786-1.65 3.332-3.22 4.643q-.942.78-2.002 1.413c.05-.04.098-.073.147-.113-1.771.967-3.317 1.85-6.11 1.144-3.41-.869-5.58-5.615-7.882-10.012-1.59-3.043-3.097-5.914-4.903-7.49-1.35-1.177-2.728-1.51-3.67-.996-1.355.746-1.92 3.26-2.096 7.465-.128 3.053-1.674 9.075-1.674 9.114l-.702 2.326s1.095-1.37 1.114-1.389c.526-.461 1.08-.814 1.541-1.109l.535-.044c1.33 1.399 2.857 2.243 4.672 2.989 1.895.775 4.123 1.251 6.695 1.433 4.122.294 8.068-.31 11.842-1.801 3.77-1.497 6.425-3.838 7.966-7.033.215-.471.422-1.129.56-1.787q.772-2.672-.56-5.064zm-29.344-4.215c.702-.3 1.57-.29 2.68.682 1.703 1.487 3.175 4.3 4.736 7.278 2.375 4.535 4.834 9.227 8.55 10.16a5.5 5.5 0 0 0 1.33.161q.427-.001.853-.054c-1.987.619-3.975.933-5.953.933-4.22 0-7.342-.825-9.354-2.469-1.075-.878-2.194-1.87-2.999-3.057-.55-.997-.927-2.209-1.168-3.505v-.132h-.02c-.755-4.319.045-9.438 1.345-9.992zM199.649 47.58c-.928-1.668-2.228-3.155-3.892-4.466q-2.497-1.964-6.606-4.583-3.725-2.32-5.433-3.632-1.713-1.311-2.513-2.768c-.535-.972-.692-2.09-.466-3.362q.477-2.319 2.773-4.108c1.531-1.193 3.45-2.12 5.757-2.797l.206-.06c.967-.112 1.865-.156 2.39-.043 3.219.692 4.108 4.368 4.756 7.92.451 2.46 1.094 5.429 2.346 6.705.937.952 1.801 1.006 2.988.589 1.708-.604 4.005-3.637 5.32-6.915q.222-.56.427-1.12h.015l.079-.255a65 65 0 0 0 1.325-4.147l-.03-.014 1.095-3.514s-.972.01-.987.03c-.5.878-1.212 2.286-1.668 2.615-1.389-1.271-2.94-1.968-4.776-2.542-1.83-.574-3.965-.864-6.395-.864a26.5 26.5 0 0 0-7.435 1.04c-1.065.236-2.252.638-3.568 1.218l.496-.104q-.258.112-.515.231c-3.451 1.59-5.792 3.867-7.028 6.847q-1.113 2.797 1.418 5.506 2.534 2.708 7.71 5.865c2.528 1.546 4.569 2.94 6.12 4.167 1.556 1.232 2.719 2.586 3.504 4.078.781 1.487.894 3.087.344 4.79q-.862 2.678-3.22 4.643-2.354 1.965-5.467 2.974a20 20 0 0 1-6.213 1.01q-6.33-.001-9.354-2.468c-2.013-1.644-4.167-3.676-4.167-6.694h-.977v-.015l-.343-.014-2.803 9.57.987-1.271c.599-.933 1.948-2.636 2.459-2.965 1.369 1.512 2.949 2.395 4.844 3.17q2.835 1.163 6.694 1.434c4.122.294 8.068-.31 11.837-1.801 3.774-1.497 6.43-3.838 7.971-7.033.216-.471.422-1.129.559-1.787q.774-2.672-.564-5.064zm-3.205-26.722c3.715 0 6.513.677 8.397 2.022 1.232.883 2.032 2.144 2.38 3.612-.23 1.035-.466 2.144-.849 3.273-1.074 3.195-2.959 6.523-4.407 6.935-.849.24-1.536.235-2.306-.55-1.183-1.202-1.811-4.338-2.253-6.748-.673-3.671-1.58-7.465-5.085-8.216h-.009a26 26 0 0 1 4.132-.328"/></svg>