<svg xmlns="http://www.w3.org/2000/svg" width="241" height="641" fill="none" viewBox="0 0 241 641"><path fill="#2c2f30" d="M145.067 301.589c5.089 2.754 16.198 8.866 17.417 11.647 1.22 2.78 1.941 6.36 2.151 10.715v47.674l-25.234-7.266-23.594-7.62c.144-2.885.328-7.882.118-13.273-.433-11.476-2.308-19.201-5.587-22.965-2.282-2.623-4.525-2.675-7.777-1.285-4.355 1.849-6.847 6.991-10.69 13.037-3.449 5.416-7.632 10.938-12.275 13.849l-3.699 1.679c-1.731.485-3.502.551-5.325.066-2.885-.761-8.866-5.574-12.079-8.302l-2.02-1.981v-41.929c.21-4.223.932-7.332 2.151-9.325 1.22-1.994 12.329-.931 17.417-.394v-.918l-21.154-6.61v69.892l.8.262c0-1.351.34-2.217 1.036-2.61.695-.394 2.098-.236 4.21.446l6.36 2.059c.158.092.302.184.46.262a14.5 14.5 0 0 0 3.213 1.299c8.984 2.374 14.925-6.951 20.656-15.975 3.764-5.928 7.332-11.515 11.437-13.272 2.689-1.141 4.787-.027 6.479 1.678 4.472 4.525 3.934 20.447 2.846 33.208h-.053c-.222 3.345-.406 5.627-.406 5.627l-.38 1.456 48.618 15.699q3.187 1.023 4.21 2.282c.695.839 1.036 1.928 1.036 3.278l.8.263v-76.515l-21.155-7.056v.918zM0 421.75l240.154 171.719v-3.463L0 418.183zM136.28 551.423c-8.433-4.407-17.417-6.624-26.965-6.624s-18.925 2.243-27.516 6.715c-8.59 4.473-15.528 11.122-20.84 19.962q-7.948 13.24-7.948 31.634V641h.8c0-1.351.342-2.335 1.037-2.938.695-.616 2.098-.918 4.21-.918h99.414c2.124 0 3.528.302 4.21.918.695.617 1.036 1.6 1.036 2.938h.8v-38.441c0-12.263-2.597-22.742-7.791-31.45-5.193-8.709-12.013-15.267-20.433-19.686zm26.638 50.952v27.411H54.612V603.49c0-10.912 2.57-20.237 7.711-27.961 5.142-7.725 11.843-13.522 20.12-17.378 8.275-3.856 17.128-5.797 26.558-5.797s18.112 1.901 26.322 5.705c8.223 3.803 14.873 9.509 19.962 17.102q7.632 11.41 7.633 27.228zM57.903 175.091c-1.482-1.587-2.23-3.489-2.23-5.692l-.8-.249v15.069l.8.262c0-2.203.748-3.62 2.23-4.249q2.223-.924 7.79.866l88.909 28.709-99.728 44.5v11.765l.8.262c0-1.115.288-1.928.878-2.479.577-.551 2.046-1.364 4.368-2.453l.472-.209 93.997 30.348q5.568 1.79 7.791 4.171c1.482 1.587 2.229 3.476 2.229 5.679l.8.262v-15.082l-.8-.263c0 2.204-.734 3.62-2.229 4.25q-2.223.944-7.791-.866l-91.61-29.588 102.43-46.559v-1.836L65.68 179.248q-5.567-1.81-7.79-4.17zM54.874 70.864l.8.263c0-1.351.34-2.217 1.036-2.61q1.042-.591 4.21.432l48.159 15.555a31 31 0 0 1-.066-1.115h.145c-1.194-13.705-2.086-31.739 2.649-33.955 1.692-.8 3.803-.774 6.479 1.81 4.105 3.974 7.672 11.489 11.437 19.45 4.065 8.577 8.223 17.364 13.495 22.65 1.6 1.679 3.449 3.187 5.391 3.908l.603.197c.38.144.774.275 1.167.393.053 0 .105 0 .158.04l9.639 3.121q3.187 1.043 4.21 2.282c.695.84 1.036 1.928 1.036 3.279l.8.262V30.312l-21.155-7.056v.918c5.089 2.741 16.198 8.853 17.418 11.646 1.219 2.78 1.941 6.348 2.15 10.715V94.13c-1.914.538-10.269 2.78-13.849 1.797-8.25-2.282-14.585-14.427-20.145-26.179-3.843-8.131-7.489-15.803-11.844-20.013-3.265-3.148-5.495-4.04-7.777-2.65-3.279 1.98-5.154 8.696-5.587 19.949a146 146 0 0 0-.039 8.918l-48.92-15.791V18.219c.21-4.223.93-7.331 2.15-9.324 1.22-1.994 12.329-.932 17.418-.394v-.918L54.887.973v69.891zM125.815 386.091c-4.46 2.492-8.434 5.954-11.935 10.4s-7.581 10.335-12.25 17.653c-4.131 6.637-7.37 11.476-9.705 14.519s-4.8 5.286-7.397 6.715-5.588 1.849-8.984 1.233c-4.132-.839-7.79-3.318-10.978-7.41s-5.666-9.22-7.476-15.384c-1.796-6.165-2.701-12.552-2.701-19.175 0-9.928 1.81-17.404 5.403-22.44 3.607-5.023 9.561-7.384 16.237-6.82l-.026-.866-21.182-6.597s.027 2.597.08 2.623c2.347 1.338 6.11 3.24 6.99 4.473-3.397 3.711-5.26 7.856-6.794 12.748-1.535 4.905-2.308 10.597-2.308 17.102 0 10.427 2.124 20.25 6.36 29.457 4.25 9.22 10.335 15.476 18.296 18.781 4.984 1.98 9.89.708 14.716-3.803s10.046-11.371 15.672-20.605c4.132-6.754 7.857-12.21 11.135-16.354 3.292-4.145 6.912-7.266 10.899-9.352 3.974-2.085 8.25-2.4 12.801-.918 4.774 1.548 8.905 4.407 12.407 8.604a43 43 0 0 1 3.777 5.351c-.105-.131-.197-.262-.302-.393 2.584 4.734 4.945 8.866 3.056 16.328-2.321 9.115-15.004 14.912-26.755 21.063-8.132 4.25-15.804 8.276-20.014 13.102-3.148 3.607-4.039 7.293-2.662 9.811 1.993 3.62 8.708 5.128 19.948 5.6 8.158.341 24.25 4.472 24.355 4.472l6.217 1.876s-3.659-2.925-3.712-2.977c-1.233-1.404-2.177-2.886-2.964-4.119l-.118-1.429c3.738-3.554 5.994-7.633 7.987-12.486 2.072-5.062 3.345-11.017 3.83-17.889.787-11.017-.826-21.562-4.813-31.647-4.001-10.073-10.257-17.168-18.795-21.287-1.259-.577-3.016-1.127-4.774-1.495q-7.14-2.065-13.535 1.495zm-11.267 78.416c-.8-1.875-.773-4.197 1.824-7.161 3.973-4.551 11.489-8.485 19.449-12.656 12.119-6.348 24.657-12.919 27.149-22.847.289-1.167.433-2.361.433-3.554 0-.761-.053-1.521-.144-2.282 1.652 5.312 2.492 10.623 2.492 15.909 0 11.279-2.204 19.62-6.597 24.997-2.348 2.873-4.997 5.863-8.171 8.014-2.663 1.469-5.902 2.479-9.365 3.121h-.354v.053c-11.541 2.02-25.22-.118-26.702-3.594zM125.815 108.807c-4.459 2.479-8.433 5.955-11.935 10.401s-7.581 10.335-12.25 17.653c-4.131 6.636-7.37 11.476-9.705 14.519-2.334 3.055-4.8 5.285-7.397 6.715s-5.587 1.849-8.984 1.246c-4.131-.853-7.79-3.319-10.977-7.411s-5.666-9.22-7.476-15.384l-.158-.551c-.301-2.583-.42-4.983-.118-6.387 1.85-8.603 11.673-10.977 21.169-12.708 6.57-1.207 14.505-2.925 17.915-6.27 2.544-2.505 2.689-4.813 1.574-7.987-1.613-4.564-9.719-10.702-18.48-14.217q-1.494-.59-2.99-1.141v-.039l-.682-.21a173 173 0 0 0-11.082-3.541l-.04.079-9.39-2.925s.026 2.597.078 2.636c2.348 1.338 6.112 3.239 6.99 4.459-3.396 3.712-5.258 7.856-6.793 12.761-1.534 4.892-2.308 10.598-2.308 17.09 0 6.885.931 13.508 2.78 19.869.63 2.846 1.705 6.02 3.253 9.535 0 0-.105-.498-.276-1.325.197.459.407.919.617 1.378 4.25 9.22 10.335 15.476 18.296 18.781 4.984 1.98 9.889.721 14.715-3.791s10.046-11.384 15.673-20.604c4.131-6.754 7.856-12.21 11.135-16.355 3.292-4.157 6.912-7.265 10.899-9.364 3.973-2.085 8.249-2.387 12.8-.918 4.774 1.535 8.905 4.407 12.407 8.604s6.151 9.062 7.948 14.61c1.81 5.548 2.702 11.083 2.702 16.604 0 11.279-2.204 19.607-6.597 24.998-4.394 5.377-9.824 11.135-17.889 11.135v2.61h-.04l-.039.918 25.575 7.489-3.397-2.637c-2.492-1.6-7.043-5.206-7.922-6.57 4.04-3.66 6.4-7.883 8.473-12.945 2.072-5.05 3.344-11.017 3.829-17.889.787-11.017-.826-21.562-4.813-31.635-4-10.085-10.256-17.181-18.794-21.299-1.259-.577-3.017-1.128-4.774-1.495-4.761-1.377-9.273-.879-13.535 1.508zm-71.413 8.565c0-9.929 1.81-17.404 5.404-22.44 2.36-3.293 5.731-5.43 9.653-6.362 2.767.617 5.73 1.246 8.747 2.269 8.539 2.873 17.43 7.909 18.532 11.778.643 2.269.63 4.105-1.469 6.164-3.213 3.161-11.594 4.84-18.033 6.02-9.81 1.797-19.949 4.223-21.955 13.587v.027a70 70 0 0 1-.879-11.043"/></svg>