<svg xmlns="http://www.w3.org/2000/svg" width="69" height="67" fill="none" viewBox="0 0 69 67"><g filter="url(#a)"><rect width="68.707" height="65.731" y=".5" fill="#eee7e1" fill-opacity=".6" rx="23.763"/></g><path fill="#2c2f30" d="m47.257 33.172-5.485-5.145.002-.027v-4.67c0-.4-.33-.725-.74-.725a.73.73 0 0 0-.74.724v3.313l-5.25-4.927a.796.796 0 0 0-1.088 0L21.743 33.172a.757.757 0 0 0-.024 1.088.797.797 0 0 0 1.112.023L34.5 23.338l11.67 10.947a.793.793 0 0 0 1.111-.023.76.76 0 0 0-.024-1.09"/><path fill="#2c2f30" d="M45.97 34.053c-.617 0-1.12.493-1.12 1.1v12.523h-6.368V44.44c0-.608-.502-1.101-1.12-1.101h-6.02c-.619 0-1.12.493-1.12 1.1v3.234h-6.37v-12.52c0-.607-.502-1.1-1.12-1.1s-1.12.493-1.12 1.1v13.625c0 .607.502 1.1 1.12 1.1h8.61c.618 0 1.12-.493 1.12-1.1V45.54h3.78v3.234c0 .607.501 1.1 1.12 1.1h8.609c.618 0 1.12-.493 1.12-1.1V35.154c0-.608-.502-1.101-1.12-1.101"/><defs><filter id="a" width="68.707" height="68.3" x="0" y=".5" color-interpolation-filters="sRGB" filterUnits="userSpaceOnUse"><feFlood flood-opacity="0" result="BackgroundImageFix"/><feBlend in="SourceGraphic" in2="BackgroundImageFix" result="shape"/><feColorMatrix in="SourceAlpha" result="hardAlpha" values="0 0 0 0 0 0 0 0 0 0 0 0 0 0 0 0 0 0 127 0"/><feOffset dy="2.569"/><feGaussianBlur stdDeviation="4.175"/><feComposite in2="hardAlpha" k2="-1" k3="1" operator="arithmetic"/><feColorMatrix values="0 0 0 0 0 0 0 0 0 0 0 0 0 0 0 0 0 0 0.25 0"/><feBlend in2="shape" result="effect1_innerShadow_69_2"/></filter></defs></svg>