<svg xmlns="http://www.w3.org/2000/svg" width="70" height="67" fill="none" viewBox="0 0 70 67"><g filter="url(#a)"><rect width="68.707" height="65.731" x=".5" y=".5" fill="#eee7e1" rx="23.763"/></g><path fill="#2c2f30" d="m53.012 33.532-7.808-7.351.003-.04v-6.674c0-.572-.471-1.035-1.053-1.035-.581 0-1.052.463-1.052 1.035V24.2l-7.474-7.042a1.13 1.13 0 0 0-1.549 0L16.695 33.532a1.085 1.085 0 0 0-.034 1.556c.429.439 1.136.454 1.583.033l16.61-15.642 16.609 15.645a1.127 1.127 0 0 0 1.582-.034 1.09 1.09 0 0 0-.033-1.558"/><path fill="#2c2f30" d="M46.47 34.053c-.617 0-1.12.493-1.12 1.1v12.523h-6.368V44.44c0-.608-.502-1.101-1.12-1.101h-6.02c-.619 0-1.12.493-1.12 1.1v3.234h-6.37v-12.52c0-.607-.502-1.1-1.12-1.1s-1.12.493-1.12 1.1v13.625c0 .607.502 1.1 1.12 1.1h8.61c.618 0 1.12-.493 1.12-1.1V45.54h3.78v3.234c0 .607.501 1.1 1.12 1.1h8.609c.618 0 1.12-.493 1.12-1.1V35.154c0-.608-.502-1.101-1.12-1.101"/><defs><filter id="a" width="68.707" height="68.3" x=".5" y=".5" color-interpolation-filters="sRGB" filterUnits="userSpaceOnUse"><feFlood flood-opacity="0" result="BackgroundImageFix"/><feBlend in="SourceGraphic" in2="BackgroundImageFix" result="shape"/><feColorMatrix in="SourceAlpha" result="hardAlpha" values="0 0 0 0 0 0 0 0 0 0 0 0 0 0 0 0 0 0 127 0"/><feOffset dy="2.569"/><feGaussianBlur stdDeviation="4.175"/><feComposite in2="hardAlpha" k2="-1" k3="1" operator="arithmetic"/><feColorMatrix values="0 0 0 0 0 0 0 0 0 0 0 0 0 0 0 0 0 0 0.25 0"/><feBlend in2="shape" result="effect1_innerShadow_140_2"/></filter></defs></svg>