<svg xmlns="http://www.w3.org/2000/svg" width="170" height="224" fill="none" viewBox="0 0 170 224"><g filter="url(#a)"><path fill="#2c2f30" d="M83.327 191.605c-.894-1.144-1.956-2.192-2.649-3.444-14.558-26.203-29.07-52.43-43.608-78.644-4.492-8.101-7.137-16.77-7.069-26.019.157-20.27 8.716-36.176 25.864-47.173C66.556 29.47 78.43 26.82 90.98 28.48c19.372 2.565 33.858 12.606 42.526 30.128 8.435 17.05 7.73 34.231-1.403 50.885-14.442 26.326-29.065 52.553-43.648 78.804-.669 1.204-1.703 2.208-2.568 3.308zm28.508-109.003c.008-15.034-12.126-27.163-27.206-27.195-15.035-.032-27.238 12.13-27.25 27.151-.012 14.982 12.223 27.239 27.206 27.267 14.952.028 27.242-12.253 27.25-27.227z"/><path stroke="#eee7e1" stroke-width="5" d="M57.214 38.43c10.195-6.539 21.475-9.053 33.44-7.471 18.574 2.459 32.327 12.008 40.613 28.757 8.057 16.285 7.403 32.604-1.355 48.574-14.438 26.319-29.055 52.537-43.64 78.792-.22.394-.526.804-.945 1.306-.166.198-.382.449-.612.717h-.207c-.244-.288-.476-.559-.653-.774-.433-.524-.756-.958-.99-1.381l-.002-.004c-14.558-26.201-29.066-52.424-43.606-78.641-4.325-7.799-6.82-16.047-6.756-24.787.15-19.443 8.291-34.557 24.713-45.088Zm27.42 14.477c-16.415-.035-29.74 13.244-29.754 29.649-.013 16.362 13.34 29.739 29.701 29.769 16.336.031 29.744-13.373 29.754-29.723v-.004c.006-16.418-13.251-29.656-29.7-29.69Z"/></g><defs><filter id="a" width="169.417" height="223.605" x="0" y="0" color-interpolation-filters="sRGB" filterUnits="userSpaceOnUse"><feFlood flood-opacity="0" result="BackgroundImageFix"/><feColorMatrix in="SourceAlpha" result="hardAlpha" values="0 0 0 0 0 0 0 0 0 0 0 0 0 0 0 0 0 0 127 0"/><feOffset dy="2"/><feGaussianBlur stdDeviation="15"/><feComposite in2="hardAlpha" operator="out"/><feColorMatrix values="0 0 0 0 0 0 0 0 0 0 0 0 0 0 0 0 0 0 0.25 0"/><feBlend in2="BackgroundImageFix" result="effect1_dropShadow_1_6073"/><feBlend in="SourceGraphic" in2="effect1_dropShadow_1_6073" result="shape"/></filter></defs></svg>